<svg height="2048" version="1.0" algsvg:version="1.0" xmlns="http://www.w3.org/2000/svg" width="2048" xmlns:algsvg="http://dtd.allegorithmic.com/algsvg.dtd">
 <path transform="matrix(2048,0,0,-2048,0,2048)" d="M0.00584003,0.00456256 L0.00584003,0.0531962 L0.00584005,0.159558 L0.00584006,0.309826 L0.00584006,0.455555 L0.00584009,0.599209 L0.00584009,0.744223 L0.00584012,0.891533 L0.00584012,0.996624 L0.134905,0.996624 L0.134905,0.965948 L0.134905,0.744223 L0.134905,0.599209 L0.134905,0.455555 L0.134904,0.309826 L0.134904,0.159558 L0.134904,0.0531962 L0.134904,0.00456256 L0.00584003,0.00456256 Z" fill="rgb(255,0,0)"/>
 <path transform="matrix(2048,0,0,-2048,0,2048)" d="M0.141466,0.30518 L0.141841,0.425031 L0.245822,0.484632 L0.349823,0.424624 L0.349823,0.304083 L0.245057,0.244468 L0.141466,0.30518 Z" fill="rgb(255,219,0)"/>
 <path transform="matrix(2048,0,0,-2048,0,2048)" d="M0.15073,0.117045 L0.155907,0.154038 L0.182662,0.196212 L0.226213,0.220592 L0.262937,0.22431 L0.273899,0.208708 L0.272405,0.194271 L0.278637,0.2075 L0.296266,0.215075 L0.325771,0.192353 L0.349788,0.14818 L0.349788,0.0978324 L0.33473,0.0635965 L0.31561,0.0617067 L0.303724,0.0703429 L0.312025,0.0581155 L0.309576,0.0390364 L0.274784,0.0250571 L0.223935,0.0265086 L0.179911,0.0523298 L0.158226,0.0834745 L0.166879,0.100961 L0.180797,0.106526 L0.166097,0.105403 L0.15073,0.117045 ZM0.304487,0.108382 L0.299136,0.135007 L0.291305,0.161158 L0.264871,0.167509 L0.239264,0.176121 L0.218333,0.158351 L0.199351,0.138442 L0.207282,0.11257 L0.212538,0.0858579 L0.238689,0.0768124 L0.265645,0.0709867 L0.28425,0.0905267 L0.304487,0.108382 Z" fill="rgb(73,255,0)"/>
 <path transform="matrix(2048,0,0,-2048,0,2048)" d="M0.156994,0.489847 L0.156994,0.557441 L0.156994,0.584053 L0.156994,0.611863 L0.156994,0.641485 L0.156994,0.673249 L0.156994,0.900116 L0.214181,0.900116 L0.500013,0.900116 L0.500013,0.489847 L0.156994,0.489847 Z" fill="rgb(0,255,146)"/>
 <path transform="matrix(2048,0,0,-2048,0,2048)" d="M0.35498,0.403274 L0.356786,0.37335 L0.378031,0.338522 L0.413335,0.31806 L0.4435,0.315189 L0.453144,0.324311 L0.450969,0.338171 L0.456325,0.325195 L0.46938,0.322415 L0.493778,0.34056 L0.513329,0.376349 L0.513328,0.417111 L0.500603,0.444684 L0.487739,0.448435 L0.476781,0.439597 L0.485355,0.450762 L0.481298,0.463535 L0.453431,0.4756 L0.412686,0.474629 L0.37739,0.454239 L0.359852,0.429422 L0.362947,0.416447 L0.376059,0.411398 L0.362177,0.413264 L0.35498,0.403274 ZM0.44358,0.398353 L0.44302,0.39371 L0.441315,0.389388 L0.437118,0.387613 L0.432618,0.386971 L0.428875,0.389804 L0.425944,0.393489 L0.426499,0.397981 L0.428162,0.402235 L0.432459,0.404027 L0.437069,0.404722 L0.440722,0.401925 L0.44358,0.398353 Z" fill="rgb(0,146,255)"/>
 <path transform="matrix(2048,0,0,-2048,0,2048)" d="M0.366377,0.00654078 L0.366377,0.261537 L0.510948,0.261537 L0.510948,0.00654078 L0.366377,0.00654078 Z" fill="rgb(73,0,255)"/>
 <path transform="matrix(2048,0,0,-2048,0,2048)" d="M0.507767,0.51788 L0.507812,0.521279 L0.689223,0.559396 L0.509822,0.556732 L0.510107,0.560175 L0.690799,0.599787 L0.512328,0.595449 L0.512454,0.598784 L0.692302,0.639484 L0.513847,0.633097 L0.514095,0.636375 L0.693746,0.677961 L0.518307,0.670572 L0.518852,0.673826 L0.695142,0.714822 L0.525923,0.70767 L0.526723,0.710862 L0.696499,0.749719 L0.53613,0.743855 L0.53713,0.746934 L0.697825,0.782354 L0.548279,0.778516 L0.549421,0.781429 L0.699129,0.812487 L0.561719,0.811045 L0.562948,0.813743 L0.700417,0.839942 L0.575866,0.84092 L0.577135,0.843363 L0.701697,0.8646 L0.590228,0.867746 L0.591497,0.869905 L0.702976,0.886399 L0.604402,0.891276 L0.605641,0.893135 L0.704264,0.905329 L0.618038,0.911412 L0.619217,0.912966 L0.705575,0.921414 L0.6308,0.928146 L0.63189,0.929396 L0.706919,0.93471 L0.642264,0.94149 L0.64329,0.942507 L0.708295,0.945273 L0.652013,0.951534 L0.653026,0.9524 L0.709677,0.953144 L0.659748,0.95835 L0.660781,0.959106 L0.711003,0.958314 L0.665922,0.961975 L0.665961,0.962764 L0.712209,0.960747 L0.722823,0.960034 L0.726759,0.959245 L0.730695,0.960034 L0.741309,0.960746 L0.787557,0.962764 L0.787596,0.961975 L0.742514,0.958314 L0.792736,0.959106 L0.79377,0.95835 L0.743841,0.953144 L0.800492,0.9524 L0.801505,0.951534 L0.745224,0.945273 L0.810228,0.942508 L0.811254,0.94149 L0.746599,0.93471 L0.821629,0.929396 L0.822718,0.928147 L0.747943,0.921415 L0.834301,0.912965 L0.83548,0.911413 L0.749255,0.905329 L0.847878,0.893135 L0.849116,0.891276 L0.750543,0.886399 L0.86202,0.869905 L0.863289,0.867746 L0.751822,0.8646 L0.876383,0.843363 L0.877652,0.84092 L0.753101,0.839942 L0.89057,0.813743 L0.891799,0.811045 L0.75439,0.812488 L0.904098,0.781429 L0.90524,0.778516 L0.755693,0.782354 L0.916389,0.746934 L0.917388,0.743856 L0.75702,0.749719 L0.926796,0.710862 L0.927596,0.70767 L0.758377,0.714822 L0.934666,0.673827 L0.935211,0.670573 L0.759773,0.677961 L0.939424,0.636375 L0.939672,0.633098 L0.761217,0.639484 L0.941066,0.598785 L0.941191,0.59545 L0.76272,0.599787 L0.943413,0.560176 L0.943698,0.556733 L0.764297,0.559396 L0.945708,0.52128 L0.945753,0.517882 L0.765978,0.518717 L0.945088,0.483444 L0.944868,0.480113 L0.767843,0.478105 L0.941477,0.447261 L0.941014,0.444007 L0.770065,0.437995 L0.934793,0.41284 L0.934106,0.409759 L0.772596,0.39997 L0.925368,0.380354 L0.924474,0.377511 L0.775206,0.365157 L0.913627,0.350009 L0.91255,0.34737 L0.777814,0.333284 L0.899871,0.321471 L0.89863,0.319002 L0.780372,0.304026 L0.884349,0.294301 L0.88295,0.291977 L0.782819,0.277047 L0.867167,0.268313 L0.865604,0.266117 L0.785102,0.252021 L0.848198,0.243466 L0.848948,0.241445 L0.787185,0.22865 L0.789041,0.206681 L0.790654,0.185918 L0.792011,0.16623 L0.793101,0.147552 L0.79391,0.12989 L0.79444,0.113324 L0.79472,0.0980063 L0.794855,0.0841511 L0.79502,0.0720576 L0.795341,0.0619692 L0.795876,0.0540999 L0.79658,0.0486475 L0.796784,0.0414751 L0.78594,0.0423398 L0.726761,0.0161899 L0.667581,0.0423397 L0.656738,0.0414749 L0.656942,0.0486473 L0.657646,0.0540999 L0.658181,0.061969 L0.658502,0.0720574 L0.658666,0.0841509 L0.658801,0.0980061 L0.659081,0.113324 L0.659611,0.12989 L0.66042,0.147552 L0.66151,0.16623 L0.662867,0.185918 L0.664481,0.20668 L0.666336,0.228649 L0.604572,0.241444 L0.605323,0.243466 L0.668418,0.252021 L0.587917,0.266117 L0.586354,0.268313 L0.670702,0.277047 L0.57057,0.291976 L0.569172,0.294301 L0.673149,0.304026 L0.55489,0.319001 L0.553649,0.321471 L0.675707,0.333284 L0.54097,0.347368 L0.539893,0.350008 L0.678314,0.365157 L0.529046,0.37751 L0.528153,0.380353 L0.680924,0.399969 L0.519415,0.409757 L0.518728,0.412839 L0.683455,0.437995 L0.512506,0.444005 L0.512042,0.44726 L0.685677,0.478105 L0.508651,0.480113 L0.508432,0.483443 L0.687542,0.518716 L0.507767,0.51788 Z" fill="rgb(255,0,219)"/>
</svg>
