<svg width="1024" xmlns:algsvg="http://dtd.allegorithmic.com/algsvg.dtd" algsvg:version="1.0" version="1.0" height="1024" xmlns="http://www.w3.org/2000/svg">
 <path fill="rgb(255,0,0)" transform="matrix(1024,0,0,-1024,0,1024)" d="M0.02283,0.248193 L0.025763,0.136427 L0.0675798,0.0265727 L0.152608,0.0347577 L0.235322,0.0416522 L0.313139,0.0463081 L0.385561,0.0521067 L0.45819,0.0353412 L0.536544,0.00831323 L0.600663,0.112093 L0.610551,0.228315 L0.568506,0.324345 L0.421178,0.378636 L0.390861,0.379002 L0.377446,0.35289 L0.350215,0.340935 L0.321973,0.332571 L0.294737,0.334371 L0.275169,0.353261 L0.267897,0.382974 L0.235273,0.389914 L0.0663721,0.342558 L0.02283,0.248193 Z"/>
 <path fill="rgb(0,255,0)" transform="matrix(1024,0,0,-1024,0,1024)" d="M0.219717,0.827449 L0.229689,0.635424 L0.294539,0.645184 L0.264237,0.58827 L0.408396,0.499724 L0.445493,0.552463 L0.474461,0.491495 L0.642921,0.574514 L0.611878,0.634459 L0.690055,0.619431 L0.690055,0.839066 L0.616536,0.830369 L0.65661,0.888628 L0.474064,0.989003 L0.447198,0.92348 L0.422086,0.991225 L0.231729,0.881826 L0.285232,0.824416 L0.219717,0.827449 Z"/>
 <path fill="rgb(0,0,255)" transform="matrix(1024,0,0,-1024,0,1024)" d="M0.623463,0.264066 L0.625201,0.440268 L0.801453,0.53079 L0.978487,0.43984 L0.978487,0.26099 L0.798762,0.175766 L0.623463,0.264066 Z"/>
</svg>
